<svg width="18" height="4" viewBox="0 0 18 4" fill="none" xmlns="http://www.w3.org/2000/svg">
<path d="M8.75 2.5C9.16421 2.5 9.5 2.16421 9.5 1.75C9.5 1.33579 9.16421 1 8.75 1C8.33579 1 8 1.33579 8 1.75C8 2.16421 8.33579 2.5 8.75 2.5Z" stroke="#808191" stroke-width="1.5" stroke-linecap="round" stroke-linejoin="round"/>
<path d="M15.75 2.5C16.1642 2.5 16.5 2.16421 16.5 1.75C16.5 1.33579 16.1642 1 15.75 1C15.3358 1 15 1.33579 15 1.75C15 2.16421 15.3358 2.5 15.75 2.5Z" stroke="#808191" stroke-width="1.5" stroke-linecap="round" stroke-linejoin="round"/>
<path d="M1.75 2.5C2.16421 2.5 2.5 2.16421 2.5 1.75C2.5 1.33579 2.16421 1 1.75 1C1.33579 1 1 1.33579 1 1.75C1 2.16421 1.33579 2.5 1.75 2.5Z" stroke="#808191" stroke-width="1.5" stroke-linecap="round" stroke-linejoin="round"/>
</svg>
